<?xml version="1.0" encoding="UTF-8" standalone="no"?>
<!DOCTYPE svg PUBLIC "-//W3C//DTD SVG 1.1//EN" "http://www.w3.org/Graphics/SVG/1.1/DTD/svg11.dtd">
<svg width="100%" height="100%" viewBox="0 0 600 400" version="1.1" xmlns="http://www.w3.org/2000/svg" xmlns:xlink="http://www.w3.org/1999/xlink" xml:space="preserve" xmlns:serif="http://www.serif.com/" style="fill-rule:evenodd;clip-rule:evenodd;stroke-linecap:round;stroke-linejoin:round;stroke-miterlimit:1.5;">
    <path id="orbitPath" d="M190.415,281.781C190.415,296.97 194.51,312.707 188.122,326.944C185.546,332.686 182.505,338.138 179.125,343.21C178.627,343.957 168.239,359.787 162.693,360.507C156.059,361.369 149.335,361.072 142.679,360.507C134.072,359.777 127.883,358.352 121.762,350.544C114.538,341.329 99.479,321.051 97.331,306.228C96.629,301.378 96.997,296.366 97.248,291.45C97.485,286.828 100.178,281.994 98.794,277.688C97.851,274.757 93.957,272.514 91.735,271.56C88.463,270.155 77.911,265.657 75.126,263.201C62.512,252.077 52.78,229.576 55.634,212.646C59.87,187.518 78.064,163.485 104.175,159.043C115.591,157.102 124.363,161.927 133.288,168.985C135.781,170.957 141.069,181.368 146.556,179.368C154.355,176.524 155.354,173.129 162.419,169.145C171.545,163.999 182.973,161.248 191.07,154.241C202.005,144.779 213.227,130.746 226.932,124.368C233.764,121.189 241.836,121.345 248.674,118.18C263.181,111.467 276.864,103.068 291.345,96.299C292.926,95.56 305.962,92.165 309.561,90.333C311.224,89.486 312.361,87.656 314.15,87.128C318.756,85.769 319.046,88.394 323.57,86.383C335.313,81.164 345.928,73.543 357.85,68.745C382.184,58.953 382.995,62.032 408.108,54.429C419.663,50.93 435.021,41.383 447.883,40.919C456.01,40.626 468.411,43.664 476.427,44.404C480.175,44.75 492.381,49.11 497.693,52.563C504.529,57.007 514.849,61.729 519.389,69.316C530.485,87.864 527.876,114.041 504.873,120.641C499.989,122.042 493.228,122.706 488.203,121.997C473.447,119.915 467.25,110.973 460.142,98.999C458.138,95.623 456.247,92.18 454.17,88.848C453.295,87.446 452.308,86.114 451.294,84.808C450.955,84.372 450.113,83.084 450.121,83.637C450.295,96.191 465.804,106.002 471.493,116.106C473.135,119.023 473.67,124.059 471.805,127.08C465.543,137.216 447.462,141.813 438.357,146.5C428.233,151.71 418.56,157.771 408.408,162.924C407.184,163.545 405.575,161.923 404.315,162.467C391.568,167.978 392.633,170.107 379.407,174.318C371.672,176.781 362.307,176.785 354.727,179.931C340.093,186.004 329.015,195.494 313.373,199.119C302.571,201.622 292.265,205.037 281.397,207.342C265.206,210.776 258.707,209.881 246.658,218.77C237.155,225.78 223.171,243.091 216.743,249.67C214.002,252.476 211.047,255.106 207.841,257.367C204.728,259.562 201.176,261.059 197.882,262.971C197.389,263.257 196.485,263.388 196.485,263.958" style="fill:none;stroke:black;stroke-width:1px;"/>
</svg>
